<?xml version="1.0" encoding="UTF-8"?>
<svg id="Layer_1" xmlns="http://www.w3.org/2000/svg" version="1.1" viewBox="0 0 512 512">
  <!-- Generator: Adobe Illustrator 29.1.0, SVG Export Plug-In . SVG Version: 2.1.0 Build 142)  -->
  <defs>
    <style>
      .st0 {
        fill: #e67333;
      }
    </style>
  </defs>
  <path class="st0" d="M48,344h392v64H48c-17.67,0-32-14.33-32-32s14.33-32,32-32Z"/>
  <path class="st0" d="M487.98,394.87l-49.15,38.62c-15.75,12.37-38.83,1.15-38.83-18.87v-77.24c0-20.02,23.08-31.25,38.82-18.87l49.15,38.62c12.23,9.6,12.23,28.13,0,37.73h.01Z"/>
  <path class="st0" d="M208.16,68.05l-31.38,24.66c-10.05,7.89-24.79.73-24.79-12.05V31.35c0-12.79,14.73-19.95,24.79-12.05l31.38,24.66c7.81,6.13,7.81,17.95,0,24.09Z"/>
  <path class="st0" d="M103.89,306.86l-34.16-43.47c-10.93-13.93-1.02-34.34,16.69-34.34h68.32c17.72,0,27.64,20.42,16.69,34.34l-34.16,43.47c-8.5,10.82-24.88,10.82-33.38,0h0Z"/>
  <path class="st0" d="M237.81,399.98c-13.09,0-23.79-10.5-23.99-23.63-.2-13.25,10.38-24.16,23.63-24.36,49.93-.77,90.55-42.03,90.55-91.99s-41.27-92-92-92-92,41.27-92,92c0,13.26-10.74,24-24,24s-24-10.74-24-24c0-77.19,62.81-140,140-140s140,62.81,140,140-61.83,138.82-137.82,139.98h-.37Z"/>
  <path class="st0" d="M156,176c-37.5,0-68-30.5-68-68s30.5-68,68-68c8.83,0,16,7.17,16,16s-7.17,16-16,16c-19.85,0-36,16.15-36,36s16.15,36,36,36c8.83,0,16,7.17,16,16s-7.17,16-16,16Z"/>
</svg>